<svg id="Capa_1" enable-background="new 0 0 512 512" height="512" viewBox="0 0 512 512" width="512" xmlns="http://www.w3.org/2000/svg" xmlns:xlink="http://www.w3.org/1999/xlink"><linearGradient id="SVGID_1_" gradientUnits="userSpaceOnUse" x1="256" x2="256" y1="451" y2="151"><stop offset="0" stop-color="#fd5900"/><stop offset="1" stop-color="#ffde00"/></linearGradient><linearGradient id="SVGID_2_" gradientUnits="userSpaceOnUse" x1="256" x2="256" y1="301" y2="61"><stop offset="0" stop-color="#ffe59a"/><stop offset="1" stop-color="#ffffd5"/></linearGradient><g id="Archive_1_"><g><path d="m467 451h-422c-8.291 0-15-6.709-15-15v-270c0-8.291 6.709-15 15-15h422c8.291 0 15 6.709 15 15v270c0 8.291-6.709 15-15 15z" fill="url(#SVGID_1_)"/></g><g><g><path d="m346 211h-180c-8.291 0-15 6.709-15 15v60c0 8.291 6.709 15 15 15h180c8.291 0 15-6.709 15-15v-60c0-8.291-6.709-15-15-15zm151-150h-482c-8.291 0-15 6.709-15 15v90c0 8.291 6.709 15 15 15h482c8.291 0 15-6.709 15-15v-90c0-8.291-6.709-15-15-15z" fill="url(#SVGID_2_)"/></g></g></g></svg>