<svg id="Capa_1" enable-background="new 0 0 512 512" height="512" viewBox="0 0 512 512" width="512" xmlns="http://www.w3.org/2000/svg" xmlns:xlink="http://www.w3.org/1999/xlink"><linearGradient id="lg1"><stop offset="0" stop-color="#ffe59a"/><stop offset="1" stop-color="#ffffd5"/></linearGradient><linearGradient id="SVGID_1_" gradientUnits="userSpaceOnUse" x1="256" x2="256" xlink:href="#lg1" y1="241" y2="0"/><linearGradient id="SVGID_2_" gradientUnits="userSpaceOnUse" x1="256" x2="256" y1="512" y2="211"><stop offset="0" stop-color="#fd5900"/><stop offset="1" stop-color="#ffde00"/></linearGradient><linearGradient id="SVGID_3_" gradientUnits="userSpaceOnUse" x1="256" x2="256" xlink:href="#lg1" y1="421" y2="301"/><g><path d="m256 0c-90.981 0-165 74.019-165 165v61c0 8.284 6.716 15 15 15h60c8.284 0 15-6.716 15-15v-61c0-41.355 33.645-75 75-75s75 33.645 75 75v61c0 8.284 6.716 15 15 15h60c8.284 0 15-6.716 15-15v-61c0-90.981-74.019-165-165-165z" fill="url(#SVGID_1_)"/><path d="m436 512h-360c-8.284 0-15-6.716-15-15v-271c0-8.284 6.716-15 15-15h360c8.284 0 15 6.716 15 15v271c0 8.284-6.716 15-15 15z" fill="url(#SVGID_2_)"/><path d="m286 421h-60c-8.284 0-15-6.716-15-15v-90c0-8.284 6.716-15 15-15h60c8.284 0 15 6.716 15 15v90c0 8.284-6.716 15-15 15z" fill="url(#SVGID_3_)"/></g></svg>