<svg id="Capa_1" enable-background="new 0 0 512 512" height="512" viewBox="0 0 512 512" width="512" xmlns="http://www.w3.org/2000/svg" xmlns:xlink="http://www.w3.org/1999/xlink"><linearGradient id="SVGID_1_" gradientUnits="userSpaceOnUse" x1="256" x2="256" y1="512" y2="0"><stop offset="0" stop-color="#ffedad"/><stop offset="1" stop-color="#ffffe5"/></linearGradient><linearGradient id="SVGID_2_" gradientUnits="userSpaceOnUse" x1="256" x2="256" y1="436" y2="76.009"><stop offset="0" stop-color="#fd5900"/><stop offset="1" stop-color="#ffde00"/></linearGradient><g id="Energy_2_"><g><g><g><path d="m510.037 224.184c-1.025-8.232-9.672-14.253-17.699-13.066-8.232.996-14.092 8.481-13.066 16.699 1.113 9.243 1.728 18.632 1.728 28.183 0 124.072-100.928 225-225 225-70.994 0-137.604-33.975-179.806-90h29.806c8.291 0 15-6.709 15-15s-6.709-15-15-15h-60c-8.291 0-15 6.709-15 15v60c0 8.291 6.709 15 15 15s15-6.709 15-15v-16.45c48.01 57.039 119.202 92.45 195 92.45 140.596 0 256-115.39 256-256 0-10.781-.674-21.401-1.963-31.816zm-477.308 60c-1.114-9.244-1.729-18.633-1.729-28.184 0-124.072 100.928-225 225-225 70.994 0 137.604 33.975 179.806 90h-29.806c-8.291 0-15 6.709-15 15s6.709 15 15 15h60c8.291 0 15-6.709 15-15v-60c0-8.291-6.709-15-15-15s-15 6.709-15 15v16.45c-48.01-57.037-119.202-92.45-195-92.45-140.596 0-256 115.39-256 256 0 10.781.674 21.401 1.963 31.816.937 7.603 8.383 13.184 15.853 13.184.615 0 1.23-.029 1.846-.117 8.233-.996 14.092-8.482 13.067-16.699z" fill="url(#SVGID_1_)"/></g></g></g><g><path d="m219.203 434.374c-6.24-3.164-9.463-10.225-7.764-17.007l26.367-105.454-105.439-26.367c-5.01-1.245-9.023-4.98-10.635-9.888-1.582-4.907-.557-10.298 2.754-14.268l150-180c4.512-5.361 12.07-6.914 18.311-3.765 6.24 3.164 9.463 10.225 7.764 17.007l-26.367 105.454 105.439 26.367c5.01 1.245 9.023 4.98 10.635 9.888 1.582 4.907.557 10.298-2.754 14.268l-150 180c-4.495 5.371-12.066 6.93-18.311 3.765z" fill="url(#SVGID_2_)"/></g></g></svg>