<svg id="Capa_1" enable-background="new 0 0 512 512" height="512" viewBox="0 0 512 512" width="512" xmlns="http://www.w3.org/2000/svg" xmlns:xlink="http://www.w3.org/1999/xlink"><linearGradient id="lg1"><stop offset="0" stop-color="#fd5900"/><stop offset="1" stop-color="#ffde00"/></linearGradient><linearGradient id="SVGID_1_" gradientUnits="userSpaceOnUse" x1="409.64" x2="409.64" xlink:href="#lg1" y1="512" y2="307.28"/><linearGradient id="SVGID_2_" gradientUnits="userSpaceOnUse" x1="195" x2="195" y1="390" y2="0"><stop offset="0" stop-color="#ffedad"/><stop offset="1" stop-color="#ffffe5"/></linearGradient><linearGradient id="SVGID_3_" gradientUnits="userSpaceOnUse" x1="258" x2="258" xlink:href="#lg1" y1="300" y2="0"/><g><g><g><path d="m507.605 443.973-102.861-102.862c-5.859-5.859-15.352-5.859-21.211 0l-10.605 10.605-40.042-40.042c-5.859-5.859-15.352-5.859-21.211 0s-5.859 15.352 0 21.211l40.042 40.042-10.605 10.605c-5.859 5.859-5.859 15.352 0 21.211l102.861 102.861c2.93 2.93 6.768 4.395 10.605 4.395s7.676-1.465 10.605-4.395l42.422-42.422c5.86-5.858 5.86-15.35 0-21.209z" fill="url(#SVGID_1_)"/></g></g><g id="Analytics_2_"><g id="Search_4_"><g><g><path d="m195 0c-107.401 0-195 87.599-195 195 0 16.5 2.1 32.399 6 47.699 1.349 5.401 34.883-.824 34.883-.824s-26.183 27.225-23.783 32.325c30.301 68.099 98.7 115.8 177.9 115.8 107.401 0 195-87.601 195-195 0-107.401-87.599-195-195-195z" fill="url(#SVGID_2_)"/></g></g></g><g><g><path d="m465 0c-24.814 0-45 20.186-45 45 0 6.939 1.581 13.516 4.398 19.391l-150.007 150.007c-5.875-2.817-12.452-4.398-19.391-4.398s-13.516 1.581-19.391 4.398l-60.007-60.007c2.817-5.875 4.398-12.452 4.398-19.391 0-24.814-20.186-45-45-45s-45 20.186-45 45c0 6.916 1.571 13.47 4.37 19.329l-88.37 88.37c2.699 10.801 6.299 21.301 11.1 31.501l98.571-98.57c5.86 2.799 12.414 4.37 19.329 4.37 6.939 0 13.516-1.581 19.391-4.398l60.007 60.007c-2.817 5.875-4.398 12.452-4.398 19.391 0 24.814 20.186 45 45 45s45-20.186 45-45c0-6.939-1.581-13.516-4.398-19.391l150.007-150.007c5.875 2.817 12.452 4.398 19.391 4.398 24.814 0 45-20.186 45-45s-20.186-45-45-45z" fill="url(#SVGID_3_)"/></g></g></g></g></svg>