<svg id="Capa_1" enable-background="new 0 0 510.567 510.567" height="512" viewBox="0 0 510.567 510.567" width="512" xmlns="http://www.w3.org/2000/svg" xmlns:xlink="http://www.w3.org/1999/xlink"><linearGradient id="SVGID_1_" gradientTransform="matrix(.707 .707 -.707 .707 224.926 -93.019)" gradientUnits="userSpaceOnUse" x1="245.253" x2="245.253" y1="482.128" y2="-57.872"><stop offset="0" stop-color="#fd5900"/><stop offset="1" stop-color="#ffde00"/></linearGradient><linearGradient id="SVGID_2_" gradientTransform="matrix(.707 .707 -.707 .707 224.926 -93.019)" gradientUnits="userSpaceOnUse" x1="245.253" x2="245.253" y1="152.128" y2="2.128"><stop offset="0" stop-color="#ffedad"/><stop offset="1" stop-color="#ffffe5"/></linearGradient><g><g id="Key_2_"><g><path d="m142.283 506.17-106.066-106.066c-5.863-5.863-5.863-15.351 0-21.213l185.76-185.761c-24.497-51.22-14.367-112.913 26.371-153.651 52.639-52.639 138.279-52.639 190.919 0s52.639 138.279 0 190.919c-40.738 40.738-102.43 50.868-153.651 26.371l-47.875 47.875 31.82 31.82c5.863 5.863 5.863 15.351 0 21.213l-42.426 42.426c-5.863 5.863-15.351 5.863-21.213 0l-31.82-31.82-21.213 21.213 53.033 53.033c5.863 5.863 5.863 15.351 0 21.213l-42.426 42.426c-5.863 5.865-15.351 5.865-21.213.002z" fill="url(#SVGID_1_)"/></g></g><g><g><path d="m290.775 187.972c-29.241-29.241-29.241-76.825 0-106.066s76.825-29.241 106.066 0 29.241 76.825 0 106.066-76.825 29.241-106.066 0z" fill="url(#SVGID_2_)"/></g></g></g></svg>