<svg id="Capa_1" enable-background="new 0 0 511.994 511.994" height="512" viewBox="0 0 511.994 511.994" width="512" xmlns="http://www.w3.org/2000/svg" xmlns:xlink="http://www.w3.org/1999/xlink"><linearGradient id="lg1"><stop offset="0" stop-color="#fd5900"/><stop offset="1" stop-color="#ffde00"/></linearGradient><linearGradient id="SVGID_1_" gradientUnits="userSpaceOnUse" x1="120.497" x2="120.497" xlink:href="#lg1" y1="450.997" y2="270.997"/><linearGradient id="SVGID_2_" gradientUnits="userSpaceOnUse" x1="391.497" x2="391.497" xlink:href="#lg1" y1="450.997" y2="270.997"/><linearGradient id="SVGID_3_" gradientUnits="userSpaceOnUse" x1="255.997" x2="255.997" xlink:href="#lg1" y1="240.997" y2="60.997"/><g id="Gold_1_"><g><path d="m225.997 450.997h-211c-4.497 0-8.745-2.021-11.602-5.493-2.842-3.472-3.984-8.042-3.105-12.451l30-150c1.406-7.002 7.559-12.056 14.707-12.056h151c7.148 0 13.301 5.054 14.707 12.056l30 150c.879 4.409-.264 8.979-3.105 12.451-2.857 3.472-7.105 5.493-11.602 5.493z" fill="url(#SVGID_1_)"/></g><g><path d="m496.997 450.997h-211c-4.497 0-8.745-2.021-11.602-5.493-2.842-3.472-3.984-8.042-3.105-12.451l30-150c1.406-7.002 7.559-12.056 14.707-12.056h151c7.148 0 13.301 5.054 14.707 12.056l30 150c.879 4.409-.264 8.979-3.105 12.451-2.857 3.472-7.105 5.493-11.602 5.493z" fill="url(#SVGID_2_)"/></g><g><path d="m360.997 240.997h-210c-4.497 0-8.745-2.021-11.602-5.493-2.842-3.472-3.984-8.042-3.105-12.451l30-150c1.406-7.002 7.559-12.056 14.707-12.056h150c7.148 0 13.301 5.054 14.707 12.056l30 150c.879 4.409-.264 8.979-3.105 12.451-2.857 3.472-7.105 5.493-11.602 5.493z" fill="url(#SVGID_3_)"/></g></g></svg>