<svg id="Capa_1" enable-background="new 0 0 512 512" height="512" viewBox="0 0 512 512" width="512" xmlns="http://www.w3.org/2000/svg" xmlns:xlink="http://www.w3.org/1999/xlink"><linearGradient id="lg1"><stop offset="0" stop-color="#ffedad"/><stop offset="1" stop-color="#ffffe5"/></linearGradient><linearGradient id="SVGID_1_" gradientUnits="userSpaceOnUse" x1="196" x2="196" xlink:href="#lg1" y1="212" y2="182"/><linearGradient id="SVGID_2_" gradientUnits="userSpaceOnUse" x1="316" x2="316" xlink:href="#lg1" y1="212" y2="182"/><linearGradient id="SVGID_3_" gradientUnits="userSpaceOnUse" x1="256" x2="256" y1="512" y2="0"><stop offset="0" stop-color="#fd5900"/><stop offset="1" stop-color="#ffde00"/></linearGradient><linearGradient id="SVGID_4_" gradientUnits="userSpaceOnUse" x1="256" x2="256" xlink:href="#lg1" y1="90" y2="60"/><g><path d="m226 212h-60c-8.291 0-15-6.709-15-15s6.709-15 15-15h60c8.291 0 15 6.709 15 15s-6.709 15-15 15z" fill="url(#SVGID_1_)"/><path d="m346 212h-60c-8.291 0-15-6.709-15-15s6.709-15 15-15h60c8.291 0 15 6.709 15 15s-6.709 15-15 15z" fill="url(#SVGID_2_)"/><path d="m256 512c-9.321 0-12.525-6.746-17.153-13.696-6.284-9.419-28.682-18.75-52.397-28.608-59.21-24.639-148.349-61.304-155.923-167.696h-15.527c-5.537 0-10.62-3.047-13.228-7.925s-2.314-10.796.747-15.396l60-90c5.566-8.35 19.395-8.35 24.961 0l60 90c3.062 4.6 3.354 10.518.747 15.396s-7.69 7.925-13.227 7.925h-14.121c5.186 42.129 34.398 68.423 90.121 83.145v-250.453c-18.706-13.872-30-36.02-30-59.692 0-41.353 33.647-75 75-75s75 33.647 75 75c0 23.672-11.294 45.82-30 59.692v250.452c55.723-14.722 84.936-41.016 90.121-83.145h-14.121c-5.537 0-10.62-3.047-13.228-7.925s-2.314-10.796.747-15.396l60-90c5.566-8.35 19.395-8.35 24.961 0l60 90c3.062 4.6 3.354 10.518.747 15.396s-7.69 7.926-13.227 7.926h-15.527c-7.573 106.392-96.728 143.071-155.937 167.71-23.701 9.858-46.099 19.175-52.383 28.594-4.649 6.98-7.791 13.696-17.153 13.696z" fill="url(#SVGID_3_)"/><g><circle cx="256" cy="75" fill="url(#SVGID_4_)" r="15"/></g></g></svg>