<svg id="Capa_1" enable-background="new 0 0 512 512" height="512" viewBox="0 0 512 512" width="512" xmlns="http://www.w3.org/2000/svg" xmlns:xlink="http://www.w3.org/1999/xlink"><linearGradient id="lg1"><stop offset="0" stop-color="#ffedad"/><stop offset="1" stop-color="#ffffe5"/></linearGradient><linearGradient id="SVGID_1_" gradientUnits="userSpaceOnUse" x1="256" x2="256" xlink:href="#lg1" y1="497" y2="206.718"/><linearGradient id="lg2"><stop offset="0" stop-color="#fd5900"/><stop offset="1" stop-color="#ffde00"/></linearGradient><linearGradient id="SVGID_2_" gradientUnits="userSpaceOnUse" x1="256" x2="256" xlink:href="#lg2" y1="185.098" y2="0"/><linearGradient id="SVGID_3_" gradientUnits="userSpaceOnUse" x1="166.214" x2="166.214" xlink:href="#lg2" y1="331.492" y2="177.888"/><linearGradient id="SVGID_4_" gradientUnits="userSpaceOnUse" x1="345.786" x2="345.786" xlink:href="#lg2" y1="331.492" y2="177.916"/><linearGradient id="SVGID_5_" gradientUnits="userSpaceOnUse" x1="256" x2="256" xlink:href="#lg1" y1="240" y2="150.143"/><linearGradient id="SVGID_6_" gradientUnits="userSpaceOnUse" x1="256" x2="256" xlink:href="#lg2" y1="512" y2="482"/><g><path d="m330.744 497c.004-.586.233-1.141.168-1.729l-30-260.296c-.439-3.647-2.197-7.017-4.922-9.463l-16.816-15c-4.688-4.189-11.543-4.995-17.139-1.992-3.574 1.934-8.496 1.934-12.07 0-5.596-3.003-12.422-2.197-17.139 1.992l-16.816 15c-2.725 2.446-4.482 5.815-4.922 9.463l-30 260.296c-.064.588.165 1.143.168 1.729z" fill="url(#SVGID_1_)"/><g><g><path d="m272.816 185.098c-2.988 0-5.947-.894-8.496-2.637-4.746-3.252-11.895-3.252-16.641 0-4.16 2.856-9.404 3.413-14.15 1.538-4.658-1.89-8.057-6.006-9.053-10.942l-28.183-140.098c-.996-4.922.557-10.02 4.102-13.564 1.992-1.993 20.419-19.395 55.605-19.395s53.613 17.402 55.605 19.395c3.545 3.545 5.098 8.643 4.102 13.564l-28.184 140.098c-.996 4.937-4.395 9.053-9.053 10.942-1.845.732-3.749 1.099-5.654 1.099z" fill="url(#SVGID_2_)"/></g></g><g><g><path d="m131.928 331.011c-2.754-.718-27.305-7.866-44.941-38.54s-11.484-55.298-10.723-58.008c1.348-4.79 4.951-8.599 9.668-10.181l135.586-45.601c5.596-1.948 12.041-.234 16.055 4.321 3.105 3.53 4.307 8.247 3.457 12.729.322 5.347 3.516 10.137 8.35 12.48 4.482 2.183 7.617 6.46 8.291 11.426.703 4.951-1.143 9.932-4.863 13.257l-107.168 94.834c-3.623 3.204-8.679 4.57-13.712 3.283z" fill="url(#SVGID_3_)"/></g></g><g><g><path d="m366.361 327.729-107.168-94.834c-3.721-3.325-5.566-8.306-4.863-13.257.674-4.966 3.809-9.243 8.291-11.426 4.863-2.358 8.086-7.192 8.35-12.451-.85-4.497.352-9.214 3.457-12.759 3.984-4.541 10.43-6.211 16.055-4.321l135.586 45.601c4.717 1.582 8.32 5.391 9.668 10.181.762 2.71 6.914 27.334-10.723 58.008s-42.188 37.822-44.941 38.54c-5.024 1.285-10.082-.072-13.712-3.282z" fill="url(#SVGID_4_)"/></g></g><g id="Windmill_1_"><g><g><path d="m256 240c-23.645 0-45-19.521-45-45 0-13.705 6.791-28.506 19.746-37.31 14.648-10.049 35.801-10.093 50.566.044 12.72 8.64 19.688 23.264 19.688 37.266 0 24.998-20.984 45-45 45zm29.063-45h.937l-.908-.015z" fill="url(#SVGID_5_)"/></g></g></g><g><path d="m406 512h-300c-8.291 0-15-6.709-15-15s6.709-15 15-15h300c8.291 0 15 6.709 15 15s-6.709 15-15 15z" fill="url(#SVGID_6_)"/></g></g></svg>